<?xml version="1.0" encoding="UTF-8"?>
<svg id="Layer_1" data-name="Layer 1" xmlns="http://www.w3.org/2000/svg" version="1.1" viewBox="0 0 124.8 23">
  <g>
    <path d="M14,15.2c0-.7.5-1.3,1.2-1.3l9.3-.9c.7,0,1.6-.5,2.1-.9s.7-.8.6-.8H11c-.7,0-.8-.1-.3-.3.5-.1,1-.8,1.2-1.5v-.6c.2-.7.3-1.2.3-1.2h-3.8c-.7,0-1.4.5-1.6,1.2l-.5,1.5c-.2.6-1,1.2-1.6,1.2H0s.3.3.8.7l1.4,1c.5.4,1.5.7,2.2.7h8.8c.7,0,.7.1,0,.3l-5.8,1.1c-.7.1-.8.6-.2,1l5.8,4.5c.5.4,1,.2,1-.5,0,0,0-5.2,0-5.2Z" style="fill: #686887; stroke-width: 0px;"/>
    <path d="M28.3,11.4h0c0,4.2-1.6,8-4.3,10.9-.8.9-1,.8-.2-.2,2.2-2.9,3.6-6.6,3.6-10.7s-1.3-7.8-3.6-10.7c-.8-1-.6-1.1.2-.2,2.5,2.7,4,6.2,4.2,10.1v.8h0Z" style="fill: #686887; stroke-width: 0px;"/>
  </g>
  <g style="isolation: isolate;">
    <g style="isolation: isolate;">
      <path d="M44.8,17.5l-5.1-7.7s0-.2-.3-.5c0-.1,0-.2,0-.3s0-.2-.2-.4v8.7h-2.2V5.5h2.6l5,7.8s0,.1,0,.3c0,.1,0,.2,0,.2v.3c0,0,.2.2.2.2V5.5h2.1v12h-2.4.2Z" style="fill: #333; stroke-width: 0px;"/>
      <path d="M50.5,17.4V5.5h2.3v11.9h-2.3Z" style="fill: #333; stroke-width: 0px;"/>
      <path d="M62.9,12.4c-.8.7-1.9,1-3.5,1s-.7,0-1.1,0v4.1h-2.3V5.5h4.1c1.5,0,2.4.3,3.2,1,.7.7,1,1.6,1,2.7s-.5,2.4-1.4,3.2ZM59.8,7.4h-1.6v4h1.1c1.8,0,2.5-.6,2.5-2.1s-.6-1.9-2-1.9Z" style="fill: #333; stroke-width: 0px;"/>
      <path d="M72.9,12.4c-.8.7-1.9,1-3.5,1s-.7,0-1.1,0v4.1h-2.3V5.5h4.1c1.5,0,2.4.3,3.2,1,.7.7,1,1.6,1,2.7s-.5,2.4-1.4,3.2ZM69.8,7.4h-1.6v4h1.1c1.8,0,2.5-.6,2.5-2.1s-.6-1.9-2-1.9Z" style="fill: #333; stroke-width: 0px;"/>
      <path d="M81.3,17.6c-3.7,0-6.3-2.6-6.3-6.2s2.6-6.2,6.3-6.2,6.3,2.5,6.3,6.2-2.6,6.2-6.3,6.2ZM81.3,7.3c-2.3,0-3.9,1.8-3.9,4.2s1.7,4.2,3.9,4.2,3.9-1.8,3.9-4.2-1.7-4.2-3.9-4.2Z" style="fill: #333; stroke-width: 0px;"/>
      <path d="M94.1,7.4v10h-2.3V7.4h-3.6v-1.9h9.4v1.9h-3.6,0Z" style="fill: #333; stroke-width: 0px;"/>
      <path d="M99.4,17.4V5.5h2.3v11.9h-2.3Z" style="fill: #333; stroke-width: 0px;"/>
      <path d="M112.8,8.2c-.8-.6-1.7-.8-2.7-.8-2.3,0-3.9,1.6-3.9,3.9s1.7,4.2,4.3,4.2,1.5-.1,2.6-.6l.4,1.9c-.8.3-1.1.5-1.6.6-.6.1-1.2.2-1.9.2-1.9,0-3.2-.5-4.3-1.5-1.3-1.1-2-2.9-2-4.8s.6-3.3,1.8-4.4c1.2-1.2,2.5-1.7,4.5-1.7s2.7.4,3.7,1.1l-.9,1.8h0Z" style="fill: #333; stroke-width: 0px;"/>
      <path d="M122.4,17.4l-.9-2.9h-4l-1,2.9h-2.4l4.3-11.9h2l4.3,11.9h-2.4,0ZM119.5,8.2l-1.4,4.3h2.8l-1.4-4.3Z" style="fill: #333; stroke-width: 0px;"/>
    </g>
  </g>
</svg>