<?xml version="1.0" encoding="UTF-8"?>
<svg id="Layer_1" data-name="Layer 1" xmlns="http://www.w3.org/2000/svg" version="1.1" viewBox="0 0 64 64">
  <path d="M60.7,33.9c1.1-.9,1.6-1.8,1.4-1.8H25.1c-1.6,0-1.8-.2-.7-.7,1.1-.2,2.3-1.8,2.7-3.4v-1.4c.5-1.6.7-2.7.7-2.7h-8.7c-1.6,0-3.2,1.1-3.6,2.7l-1.1,3.4c-.5,1.4-2.3,2.7-3.6,2.7H0s.7.7,1.8,1.6l3.2,2.3c1.1.9,3.4,1.6,5,1.6h20c1.6,0,1.6.2,0,.7l-13.2,2.5c-1.6.2-1.8,1.4-.5,2.3l13.2,10.2c1.1.9,2.3.5,2.3-1.1v-11.8c0-1.6,1.1-3,2.7-3l21.2-2c1.6,0,3.6-1.1,4.8-2Z" style="fill: #5d6567; stroke-width: 0px;"/>
  <path d="M63.8,29.3s-.8-13.5-9.1-21.8c-.4-.4-1.5-1.5-1.6-1.4-.1,0,.2.7,1.1,1.8,5.2,6.6,8.2,15,8.2,24.4s-3.2,17.8-8.2,24.4c-1.8,2.3-1.4,2.5.5.5,2.1-2.4,3.9-4.9,4.7-6.3,5.5-10.2,4.4-21.5,4.4-21.5Z" style="fill: #5d6567; stroke-width: 0px;"/>
</svg>