<?xml version="1.0" encoding="UTF-8"?>
<svg id="Layer_1" data-name="Layer 1" xmlns="http://www.w3.org/2000/svg" version="1.1" viewBox="0 0 483.1 143.3">
  <rect width="99.2" height="28.3" style="fill: #e7f4f7; stroke-width: 0px;"/>
  <g style="isolation: isolate;">
    <text transform="translate(6.5 17.7)" style="fill: #000; font-family: Lato-Regular, Lato; font-size: 10px; isolation: isolate;"><tspan x="0" y="0">Predictive Analytics</tspan></text>
  </g>
  <rect y="28.7" width="99.2" height="28.3" style="fill: #f7fbfc; stroke-width: 0px;"/>
  <g style="isolation: isolate;">
    <text transform="translate(7.1 46.4)" style="fill: #000; font-family: Lato-Regular, Lato; font-size: 10px; isolation: isolate;"><tspan x="0" y="0">Algorithmic Trading</tspan></text>
  </g>
  <rect y="57.5" width="99.2" height="28.3" style="fill: #e7f4f7; stroke-width: 0px;"/>
  <g style="isolation: isolate;">
    <text transform="translate(10.2 75.2)" style="fill: #000; font-family: Lato-Regular, Lato; font-size: 10px; isolation: isolate;"><tspan x="0" y="0">Risk Management</tspan></text>
    <text/>
  </g>
  <rect y="86.2" width="99.2" height="28.3" style="fill: #f7fbfc; stroke-width: 0px;"/>
  <g style="isolation: isolate;">
    <text transform="translate(8.6 103.9)" style="fill: #000; font-family: Lato-Regular, Lato; font-size: 10px; isolation: isolate;"><tspan x="0" y="0">Derivatives Pricing</tspan></text>
  </g>
  <rect y="115" width="99.2" height="28.3" style="fill: #e7f4f7; stroke-width: 0px;"/>
  <g style="isolation: isolate;">
    <text transform="translate(8.1 132.6)" style="fill: #000; font-family: Lato-Regular, Lato; font-size: 10px; isolation: isolate;"><tspan x="0" y="0">Sentiment Analysis</tspan></text>
  </g>
  <rect x="142.1" y=".8" width="85" height="141.7" style="fill: #def0f5; stroke-width: 0px;"/>
  <rect x="270.1" y="57.5" width="85" height="28.3" style="fill: #eee; stroke-width: 0px;"/>
  <g style="isolation: isolate;">
    <text transform="translate(303.7 75.1)" style="fill: #000; font-family: Lato-Regular, Lato; font-size: 10px; isolation: isolate;"><tspan x="0" y="0">API</tspan></text>
  </g>
  <rect x="398.1" y="29.1" width="85" height="85" style="fill: #e9e9e9; stroke-width: 0px;"/>
  <line x1="99.4" y1="14.2" x2="141.9" y2="14.2" style="fill: none; stroke: #000; stroke-miterlimit: 10; stroke-width: .4px;"/>
  <line x1="99.4" y1="42.9" x2="141.9" y2="42.9" style="fill: none; stroke: #000; stroke-miterlimit: 10; stroke-width: .4px;"/>
  <line x1="99.4" y1="71.7" x2="141.9" y2="71.7" style="fill: none; stroke: #000; stroke-miterlimit: 10; stroke-width: .4px;"/>
  <line x1="99.4" y1="100.4" x2="141.9" y2="100.4" style="fill: none; stroke: #000; stroke-miterlimit: 10; stroke-width: .4px;"/>
  <line x1="99.4" y1="129.2" x2="141.9" y2="129.2" style="fill: none; stroke: #000; stroke-miterlimit: 10; stroke-width: .4px;"/>
  <line x1="228.2" y1="71.7" x2="269.1" y2="71.7" style="fill: none; stroke: #000; stroke-miterlimit: 10; stroke-width: .4px;"/>
  <polygon points="233.4 74 227.9 71.7 233.4 69.3 233.4 74" style="fill: #000; stroke-width: 0px;"/>
  <polygon points="233.4 74 227.9 71.7 233.4 69.3 233.4 74" style="fill: none; stroke: #000; stroke-miterlimit: 10; stroke-width: .4px;"/>
  <polygon points="263.9 69.3 269.4 71.7 263.9 74 263.9 69.3" style="fill: #000; stroke-width: 0px;"/>
  <polygon points="263.9 69.3 269.4 71.7 263.9 74 263.9 69.3" style="fill: none; stroke: #000; stroke-miterlimit: 10; stroke-width: .4px;"/>
  <line x1="356.1" y1="71.7" x2="397" y2="71.7" style="fill: none; stroke: #000; stroke-miterlimit: 10; stroke-width: .4px;"/>
  <polygon points="361.3 74 355.8 71.7 361.3 69.3 361.3 74" style="fill: #000; stroke-width: 0px;"/>
  <polygon points="361.3 74 355.8 71.7 361.3 69.3 361.3 74" style="fill: none; stroke: #000; stroke-miterlimit: 10; stroke-width: .4px;"/>
  <polygon points="391.8 69.3 397.3 71.7 391.8 74 391.8 69.3" style="fill: #000; stroke-width: 0px;"/>
  <polygon points="391.8 69.3 397.3 71.7 391.8 74 391.8 69.3" style="fill: none; stroke: #000; stroke-miterlimit: 10; stroke-width: .4px;"/>
  <g style="isolation: isolate;">
    <text transform="translate(170.2 74)" style="fill: #000; font-family: Lato-Regular, Lato; font-size: 10px; isolation: isolate;"><tspan x="0" y="0">Toolkit</tspan></text>
  </g>
  <g style="isolation: isolate;">
    <text transform="translate(415.1 63.2)" style="fill: #000; font-family: Lato-Regular, Lato; font-size: 10px; isolation: isolate;"><tspan x="0" y="0">Investment</tspan><tspan x="-4.3" y="12">Management</tspan><tspan x="4.3" y="24">Solutions</tspan></text>
  </g>
</svg>