<?xml version="1.0" encoding="UTF-8"?>
<svg id="Layer_1" data-name="Layer 1" xmlns="http://www.w3.org/2000/svg" version="1.1" viewBox="0 0 483.1 143.3">
  <defs>
    <style>
      .cls-1 {
        fill: #eee;
      }

      .cls-1, .cls-2, .cls-3, .cls-4, .cls-5 {
        stroke-width: 0px;
      }

      .cls-2 {
        fill: #e9e9e9;
      }

      .cls-3 {
        fill: #d2edf8;
      }

      .cls-4, .cls-6 {
        fill: #000;
      }

      .cls-5 {
        fill: #f7fbfc;
      }

      .cls-7, .cls-6 {
        isolation: isolate;
      }

      .cls-8 {
        fill: none;
        stroke: #000;
        stroke-miterlimit: 10;
        stroke-width: .4px;
      }

      .cls-6 {
        font-family: Scala, Scala;
        font-size: 10px;
      }
    </style>
  </defs>
  <rect class="cls-3" width="99.2" height="28.3"/>
  <g class="cls-7">
    <g class="cls-7">
      <text class="cls-6" transform="translate(8.5 17.7)"><tspan x="0" y="0">Predictive Analytics</tspan></text>
    </g>
  </g>
  <rect class="cls-5" y="28.7" width="99.2" height="28.3"/>
  <g class="cls-7">
    <g class="cls-7">
      <text class="cls-6" transform="translate(6.1 46.4)"><tspan x="0" y="0">Algorithmic Trading</tspan></text>
    </g>
  </g>
  <rect class="cls-3" y="57.5" width="99.2" height="28.3"/>
  <g class="cls-7">
    <g class="cls-7">
      <text class="cls-6" transform="translate(11.2 75.2)"><tspan x="0" y="0">Risk Management</tspan></text>
    </g>
  </g>
  <rect class="cls-5" y="86.2" width="99.2" height="28.3"/>
  <g class="cls-7">
    <g class="cls-7">
      <text class="cls-6" transform="translate(9.6 103.9)"><tspan x="0" y="0">Derivatives Pricing</tspan></text>
    </g>
  </g>
  <rect class="cls-3" y="115" width="99.2" height="28.3"/>
  <g class="cls-7">
    <g class="cls-7">
      <text class="cls-6" transform="translate(9.1 132.6)"><tspan x="0" y="0">Sentiment Analysis</tspan></text>
    </g>
  </g>
  <rect class="cls-3" x="142.1" y=".8" width="85" height="141.7"/>
  <rect class="cls-1" x="270.1" y="57.5" width="85" height="28.3"/>
  <g class="cls-7">
    <g class="cls-7">
      <text class="cls-6" transform="translate(303.7 75.1)"><tspan x="0" y="0">API</tspan></text>
    </g>
  </g>
  <rect class="cls-2" x="398.1" y="29.1" width="85" height="85"/>
  <line class="cls-8" x1="99.4" y1="14.2" x2="141.9" y2="14.2"/>
  <line class="cls-8" x1="99.4" y1="42.9" x2="141.9" y2="42.9"/>
  <line class="cls-8" x1="99.4" y1="71.7" x2="141.9" y2="71.7"/>
  <line class="cls-8" x1="99.4" y1="100.4" x2="141.9" y2="100.4"/>
  <line class="cls-8" x1="99.4" y1="129.2" x2="141.9" y2="129.2"/>
  <line class="cls-8" x1="228.2" y1="71.7" x2="269.1" y2="71.7"/>
  <polygon class="cls-4" points="233.4 74 227.9 71.7 233.4 69.3 233.4 74"/>
  <polygon class="cls-8" points="233.4 74 227.9 71.7 233.4 69.3 233.4 74"/>
  <polygon class="cls-4" points="263.9 69.3 269.4 71.7 263.9 74 263.9 69.3"/>
  <polygon class="cls-8" points="263.9 69.3 269.4 71.7 263.9 74 263.9 69.3"/>
  <line class="cls-8" x1="356.1" y1="71.7" x2="397" y2="71.7"/>
  <polygon class="cls-4" points="361.3 74 355.8 71.7 361.3 69.3 361.3 74"/>
  <polygon class="cls-8" points="361.3 74 355.8 71.7 361.3 69.3 361.3 74"/>
  <polygon class="cls-4" points="391.8 69.3 397.3 71.7 391.8 74 391.8 69.3"/>
  <polygon class="cls-8" points="391.8 69.3 397.3 71.7 391.8 74 391.8 69.3"/>
  <g class="cls-7">
    <g class="cls-7">
      <text class="cls-6" transform="translate(170.2 74)"><tspan x="0" y="0">Toolkit</tspan></text>
    </g>
  </g>
  <g class="cls-7">
    <g class="cls-7">
      <text class="cls-6" transform="translate(417.1 63.2)"><tspan x="0" y="0">Investment</tspan></text>
      <text class="cls-6" transform="translate(412.8 75.2)"><tspan x="0" y="0">Management</tspan></text>
      <text class="cls-6" transform="translate(421.4 87.2)"><tspan x="0" y="0">Solutions</tspan></text>
    </g>
  </g>
</svg>